<svg width="24" height="24" viewBox="0 0 20 20" fill="#b172ff" xmlns="http://www.w3.org/2000/svg" class="fill-gray2 group-hover/randomize:fill-gray1"><path fill-rule="evenodd" clip-rule="evenodd" d="M8.31314 1.91504H11.685H11.685C12.6346 1.91503 13.3981 1.91503 14.0159 1.9655C14.6511 2.0174 15.2054 2.12681 15.7171 2.38753C16.5328 2.80314 17.196 3.46631 17.6116 4.28199C17.8723 4.79367 17.9817 5.34798 18.0336 5.98325C18.0841 6.60098 18.0841 7.36445 18.0841 8.31403V8.31411V11.686V11.686C18.0841 12.6356 18.0841 13.3991 18.0336 14.0168C17.9817 14.6521 17.8723 15.2064 17.6116 15.7181C17.196 16.5338 16.5328 17.1969 15.7171 17.6126C15.2054 17.8733 14.6511 17.9827 14.0159 18.0346C13.3981 18.0851 12.6347 18.085 11.6851 18.085H11.685H8.31314H8.31305C7.36347 18.085 6.60001 18.0851 5.98227 18.0346C5.347 17.9827 4.79269 17.8733 4.28101 17.6126C3.46533 17.1969 2.80216 16.5338 2.38655 15.7181C2.12584 15.2064 2.01642 14.6521 1.96452 14.0168C1.91405 13.3991 1.91405 12.6356 1.91406 11.686V11.686V8.31412V8.3141C1.91405 7.36449 1.91405 6.601 1.96452 5.98325C2.01642 5.34798 2.12584 4.79367 2.38655 4.28199C2.80216 3.46631 3.46533 2.80314 4.28101 2.38753C4.79269 2.12681 5.347 2.0174 5.98227 1.9655C6.60002 1.91503 7.36351 1.91503 8.31313 1.91504H8.31314ZM6.11827 3.62995C5.58627 3.67342 5.27619 3.75474 5.03918 3.87551C4.53773 4.13101 4.13003 4.5387 3.87453 5.04016C3.75377 5.27717 3.67244 5.58725 3.62897 6.11924C3.58471 6.66098 3.58406 7.35617 3.58406 8.35004V11.65C3.58406 12.6439 3.58471 13.3391 3.62897 13.8808C3.67244 14.4128 3.75377 14.7229 3.87453 14.9599C4.13003 15.4614 4.53773 15.8691 5.03918 16.1246C5.27619 16.2453 5.58627 16.3267 6.11827 16.3701C6.66001 16.4144 7.35519 16.415 8.34906 16.415H11.6491C12.6429 16.415 13.3381 16.4144 13.8799 16.3701C14.4119 16.3267 14.7219 16.2453 14.9589 16.1246C15.4604 15.8691 15.8681 15.4614 16.1236 14.9599C16.2444 14.7229 16.3257 14.4128 16.3692 13.8808C16.4134 13.3391 16.4141 12.6439 16.4141 11.65V8.35004C16.4141 7.35617 16.4134 6.66098 16.3692 6.11924C16.3257 5.58725 16.2444 5.27717 16.1236 5.04016C15.8681 4.5387 15.4604 4.13101 14.9589 3.87551C14.7219 3.75474 14.4119 3.67342 13.8799 3.62995C13.3381 3.58569 12.6429 3.58504 11.6491 3.58504H8.34906C7.35519 3.58504 6.66001 3.58569 6.11827 3.62995ZM8.99906 7.5C8.99906 8.32843 8.32749 9 7.49906 9C6.67063 9 5.99906 8.32843 5.99906 7.5C5.99906 6.67157 6.67063 6 7.49906 6C8.32749 6 8.99906 6.67157 8.99906 7.5ZM12.4991 14C13.3275 14 13.9991 13.3284 13.9991 12.5C13.9991 11.6716 13.3275 11 12.4991 11C11.6706 11 10.9991 11.6716 10.9991 12.5C10.9991 13.3284 11.6706 14 12.4991 14Z" fill="fill"></path></svg>